<?xml version="1.0" standalone="no"?>
<!DOCTYPE svg PUBLIC "-//W3C//DTD SVG 20010904//EN"
 "http://www.w3.org/TR/2001/REC-SVG-20010904/DTD/svg10.dtd">
<svg version="1.0" xmlns="http://www.w3.org/2000/svg"
 width="603.000000pt" height="547.000000pt" viewBox="0 0 603.000000 547.000000"
 preserveAspectRatio="xMidYMid meet">

<g transform="translate(0.000000,547.000000) scale(0.100000,-0.100000)"
fill="green" stroke="none">
<path d="M1925 5289 c-100 -10 -222 -51 -335 -114 -43 -24 -138 -109 -195
-175 -46 -54 -114 -185 -137 -265 -56 -196 -67 -299 -68 -655 0 -283 4 -269
-89 -328 -42 -28 -121 -73 -176 -102 -55 -29 -118 -64 -140 -77 -37 -23 -141
-83 -245 -141 -46 -25 -210 -179 -210 -196 0 -5 -18 -37 -39 -70 -83 -128
-114 -263 -100 -443 9 -107 46 -248 73 -276 7 -6 25 -36 42 -66 66 -123 217
-240 554 -431 36 -20 97 -57 136 -82 40 -26 90 -56 112 -67 77 -39 72 -10 72
-429 0 -394 5 -460 44 -577 51 -150 80 -198 201 -330 51 -56 202 -151 280
-177 173 -57 309 -69 465 -42 165 28 312 85 480 185 8 4 36 20 62 33 27 14 60
37 75 51 16 14 37 28 48 31 11 4 50 26 87 50 37 24 70 44 73 44 6 0 67 -41 75
-51 3 -4 25 -16 49 -29 24 -12 69 -39 100 -60 62 -41 301 -160 323 -160 8 0
18 -4 24 -9 5 -5 25 -13 44 -19 161 -48 212 -61 255 -66 28 -3 64 -8 81 -12
78 -15 295 29 419 86 67 31 217 154 254 209 13 20 34 47 46 61 32 37 80 137
98 205 27 101 36 227 43 550 3 171 10 333 15 362 12 62 22 70 234 172 83 40
166 81 185 92 19 10 86 45 148 76 91 47 129 73 192 135 44 42 80 81 80 88 0 6
18 35 40 64 42 56 58 93 94 226 52 187 41 330 -43 549 -45 118 -197 304 -286
348 -27 14 -62 34 -76 44 -14 10 -102 57 -195 105 -188 96 -247 128 -284 153
-14 10 -40 23 -58 31 -63 25 -62 20 -62 268 -1 319 -15 561 -38 653 -36 142
-124 286 -247 401 -27 26 -119 81 -180 108 -27 13 -61 28 -75 35 -73 36 -288
50 -405 25 -75 -15 -291 -119 -325 -155 -14 -15 -41 -35 -60 -45 -19 -10 -48
-31 -65 -45 -27 -25 -54 -45 -188 -140 -23 -17 -74 -56 -114 -88 -40 -31 -76
-57 -81 -57 -10 0 -156 96 -204 134 -30 24 -52 40 -104 76 -20 14 -55 41 -78
60 -22 20 -67 53 -99 75 -32 22 -82 56 -110 76 -60 40 -181 94 -247 108 -69
15 -157 19 -245 10z m188 -480 c40 -21 131 -83 182 -125 28 -22 79 -60 115
-84 36 -24 81 -58 101 -74 20 -17 71 -56 113 -86 42 -30 98 -71 124 -91 85
-64 138 -89 216 -101 59 -9 84 -9 118 1 52 15 133 61 169 94 14 14 39 32 55
40 16 9 49 34 74 56 25 23 48 41 52 41 4 0 31 19 60 43 29 23 85 65 123 92 39
27 79 58 90 68 11 10 56 43 100 73 100 68 160 83 265 67 63 -10 77 -17 127
-59 39 -34 64 -66 84 -109 32 -67 26 0 55 -705 l15 -385 41 -37 c23 -20 60
-44 82 -54 93 -39 114 -49 179 -91 37 -23 72 -43 77 -43 16 0 162 -75 224
-115 30 -19 78 -45 108 -58 29 -13 67 -35 83 -49 17 -13 46 -33 65 -44 51 -28
117 -101 146 -161 53 -110 38 -240 -38 -337 -21 -27 -38 -52 -38 -55 0 -4 -19
-18 -42 -31 -24 -13 -56 -33 -73 -45 -16 -12 -77 -45 -135 -72 -117 -56 -396
-191 -450 -217 -142 -68 -175 -91 -197 -136 -22 -43 -23 -61 -33 -505 -6 -253
-15 -485 -21 -515 -20 -117 -89 -213 -187 -261 -41 -21 -61 -24 -162 -23 -96
1 -127 5 -190 27 -117 40 -204 83 -312 153 -54 35 -104 64 -111 64 -7 0 -36
17 -64 39 -28 21 -95 60 -150 86 -85 42 -107 48 -163 49 -59 1 -75 -4 -165
-49 -54 -27 -117 -63 -139 -80 -23 -16 -54 -37 -71 -45 -28 -14 -41 -24 -87
-62 -12 -10 -25 -18 -29 -18 -4 0 -36 -17 -71 -37 -280 -166 -529 -186 -666
-53 -63 61 -98 121 -106 180 -3 25 -8 128 -11 230 -12 448 -26 748 -37 788
-11 44 -52 85 -121 122 -114 62 -198 109 -223 127 -16 11 -65 40 -109 64 -44
23 -105 60 -136 81 -31 21 -61 38 -67 38 -15 0 -140 78 -207 128 -45 35 -64
58 -90 113 -28 58 -32 77 -29 124 8 116 88 236 188 285 25 12 62 33 83 48 21
14 65 39 98 55 33 16 67 35 75 42 8 7 69 41 135 75 66 34 131 70 145 80 14 10
45 27 70 40 87 43 201 114 209 129 8 15 18 195 42 741 9 219 21 318 47 380 27
65 97 122 202 164 23 9 167 -2 193 -15z"/>
<path d="M2848 3688 c-16 -5 -28 -13 -28 -18 0 -5 -9 -11 -19 -15 -51 -16
-111 -108 -124 -191 -20 -122 105 -272 242 -290 147 -19 275 96 288 260 7 77
-8 114 -76 188 -35 38 -65 61 -89 68 -46 12 -158 12 -194 -2z"/>
<path d="M2952 2880 c-58 -12 -89 -34 -149 -103 -34 -38 -52 -70 -57 -95 -23
-142 27 -246 149 -309 63 -32 75 -35 130 -31 93 8 199 69 229 132 63 132 46
247 -48 334 -24 22 -57 47 -74 56 -39 20 -125 27 -180 16z"/>
</g>
</svg>
