<?xml version="1.0" encoding="UTF-8"?>
<svg xmlns="http://www.w3.org/2000/svg" xmlns:xlink="http://www.w3.org/1999/xlink" width="80px" height="73px" viewBox="0 0 80 73" version="1.1">
<g id="surface1">
<path style=" stroke:none;fill-rule:nonzero;fill:#0FBA81;fill-opacity:1;" d="M 25.53125 2.414062 C 24.203125 2.546875 22.585938 3.09375 21.085938 3.933594 C 20.515625 4.253906 19.257812 5.390625 18.5 6.269531 C 17.890625 6.992188 16.988281 8.738281 16.683594 9.804688 C 15.941406 12.421875 15.796875 13.792969 15.78125 18.542969 C 15.78125 22.320312 15.835938 22.132812 14.601562 22.917969 C 14.046875 23.292969 12.996094 23.894531 12.269531 24.28125 C 11.539062 24.667969 10.703125 25.132812 10.410156 25.308594 C 9.921875 25.613281 8.542969 26.414062 7.160156 27.1875 C 6.550781 27.523438 4.375 29.578125 4.375 29.804688 C 4.375 29.871094 4.136719 30.296875 3.859375 30.738281 C 2.757812 32.445312 2.347656 34.246094 2.53125 36.648438 C 2.652344 38.074219 3.144531 39.957031 3.5 40.328125 C 3.59375 40.410156 3.832031 40.808594 4.058594 41.210938 C 4.933594 42.851562 6.9375 44.410156 11.40625 46.960938 C 11.882812 47.226562 12.691406 47.71875 13.210938 48.054688 C 13.738281 48.398438 14.402344 48.800781 14.695312 48.945312 C 15.714844 49.46875 15.648438 49.082031 15.648438 54.671875 C 15.648438 59.925781 15.714844 60.808594 16.234375 62.367188 C 16.910156 64.367188 17.292969 65.007812 18.898438 66.769531 C 19.574219 67.515625 21.578125 68.785156 22.613281 69.132812 C 24.90625 69.890625 26.710938 70.050781 28.78125 69.691406 C 30.96875 69.316406 32.917969 68.558594 35.144531 67.222656 C 35.253906 67.171875 35.625 66.957031 35.96875 66.785156 C 36.328125 66.597656 36.765625 66.289062 36.960938 66.101562 C 37.175781 65.917969 37.453125 65.730469 37.597656 65.6875 C 37.746094 65.636719 38.261719 65.34375 38.753906 65.023438 C 39.242188 64.703125 39.683594 64.433594 39.722656 64.433594 C 39.800781 64.433594 40.609375 64.980469 40.714844 65.117188 C 40.757812 65.167969 41.046875 65.328125 41.367188 65.503906 C 41.683594 65.664062 42.28125 66.023438 42.691406 66.304688 C 43.515625 66.851562 46.683594 68.4375 46.976562 68.4375 C 47.082031 68.4375 47.214844 68.492188 47.292969 68.558594 C 47.359375 68.625 47.625 68.730469 47.878906 68.8125 C 50.011719 69.453125 50.691406 69.625 51.261719 69.691406 C 51.632812 69.730469 52.109375 69.796875 52.335938 69.851562 C 53.367188 70.050781 56.246094 69.464844 57.890625 68.703125 C 58.78125 68.289062 60.769531 66.648438 61.261719 65.917969 C 61.433594 65.648438 61.710938 65.289062 61.871094 65.101562 C 62.292969 64.609375 62.929688 63.273438 63.167969 62.367188 C 63.527344 61.019531 63.648438 59.339844 63.738281 55.03125 C 63.78125 52.75 63.871094 50.585938 63.9375 50.199219 C 64.097656 49.375 64.230469 49.265625 67.042969 47.90625 C 68.144531 47.371094 69.242188 46.824219 69.496094 46.679688 C 69.746094 46.546875 70.636719 46.078125 71.457031 45.664062 C 72.664062 45.039062 73.167969 44.691406 74.003906 43.863281 C 74.589844 43.304688 75.066406 42.785156 75.066406 42.691406 C 75.066406 42.609375 75.304688 42.222656 75.597656 41.835938 C 76.152344 41.089844 76.367188 40.59375 76.84375 38.820312 C 77.53125 36.328125 77.386719 34.417969 76.273438 31.496094 C 75.675781 29.921875 73.660156 27.441406 72.480469 26.855469 C 72.121094 26.667969 71.65625 26.402344 71.472656 26.269531 C 71.285156 26.132812 70.121094 25.507812 68.886719 24.867188 C 66.390625 23.585938 65.609375 23.160156 65.121094 22.824219 C 64.933594 22.691406 64.589844 22.519531 64.351562 22.414062 C 63.515625 22.078125 63.527344 22.144531 63.527344 18.835938 C 63.515625 14.582031 63.328125 11.351562 63.023438 10.125 C 62.546875 8.230469 61.378906 6.308594 59.746094 4.777344 C 59.390625 4.429688 58.167969 3.695312 57.359375 3.335938 C 57.003906 3.160156 56.550781 2.960938 56.367188 2.867188 C 55.398438 2.386719 52.546875 2.203125 50.996094 2.535156 C 50 2.734375 47.136719 4.121094 46.683594 4.601562 C 46.5 4.800781 46.140625 5.070312 45.886719 5.203125 C 45.636719 5.335938 45.253906 5.617188 45.027344 5.804688 C 44.667969 6.136719 44.308594 6.402344 42.53125 7.671875 C 42.226562 7.898438 41.550781 8.417969 41.019531 8.84375 C 40.492188 9.257812 40.011719 9.605469 39.945312 9.605469 C 39.8125 9.605469 37.878906 8.324219 37.242188 7.816406 C 36.84375 7.496094 36.550781 7.285156 35.863281 6.804688 C 35.597656 6.617188 35.132812 6.257812 34.828125 6.003906 C 34.535156 5.738281 33.9375 5.296875 33.515625 5.003906 C 33.089844 4.710938 32.425781 4.253906 32.054688 3.988281 C 31.261719 3.457031 29.65625 2.734375 28.78125 2.546875 C 27.863281 2.347656 26.699219 2.292969 25.53125 2.414062 Z M 28.023438 8.816406 C 28.554688 9.097656 29.761719 9.925781 30.4375 10.484375 C 30.808594 10.777344 31.484375 11.285156 31.960938 11.605469 C 32.441406 11.925781 33.039062 12.378906 33.300781 12.59375 C 33.566406 12.820312 34.242188 13.339844 34.800781 13.742188 C 35.359375 14.140625 36.101562 14.6875 36.445312 14.953125 C 37.574219 15.808594 38.277344 16.140625 39.308594 16.300781 C 40.09375 16.421875 40.425781 16.421875 40.875 16.289062 C 41.566406 16.089844 42.640625 15.476562 43.117188 15.035156 C 43.300781 14.847656 43.632812 14.609375 43.847656 14.5 C 44.058594 14.382812 44.496094 14.046875 44.828125 13.753906 C 45.160156 13.449219 45.464844 13.207031 45.515625 13.207031 C 45.570312 13.207031 45.929688 12.953125 46.3125 12.632812 C 46.699219 12.328125 47.441406 11.765625 47.945312 11.40625 C 48.460938 11.046875 48.992188 10.632812 49.136719 10.5 C 49.285156 10.367188 49.878906 9.925781 50.464844 9.523438 C 51.789062 8.617188 52.585938 8.417969 53.980469 8.632812 C 54.8125 8.765625 55 8.859375 55.664062 9.417969 C 56.179688 9.871094 56.511719 10.300781 56.777344 10.871094 C 57.203125 11.765625 57.121094 10.871094 57.507812 20.277344 L 57.707031 25.414062 L 58.25 25.90625 C 58.554688 26.175781 59.046875 26.496094 59.335938 26.628906 C 60.570312 27.148438 60.847656 27.28125 61.710938 27.84375 C 62.203125 28.148438 62.664062 28.414062 62.730469 28.414062 C 62.945312 28.414062 64.878906 29.417969 65.703125 29.949219 C 66.101562 30.203125 66.738281 30.550781 67.136719 30.722656 C 67.519531 30.898438 68.023438 31.191406 68.234375 31.378906 C 68.460938 31.550781 68.847656 31.816406 69.097656 31.964844 C 69.773438 32.335938 70.648438 33.3125 71.035156 34.113281 C 71.738281 35.578125 71.539062 37.3125 70.53125 38.609375 C 70.253906 38.96875 70.027344 39.300781 70.027344 39.339844 C 70.027344 39.394531 69.773438 39.582031 69.46875 39.753906 C 69.152344 39.929688 68.726562 40.195312 68.5 40.355469 C 68.289062 40.515625 67.480469 40.957031 66.710938 41.316406 C 65.160156 42.0625 61.457031 43.863281 60.742188 44.210938 C 58.859375 45.117188 58.421875 45.425781 58.128906 46.023438 C 57.839844 46.597656 57.824219 46.839844 57.691406 52.761719 C 57.613281 56.136719 57.492188 59.234375 57.414062 59.632812 C 57.148438 61.195312 56.234375 62.472656 54.933594 63.113281 C 54.390625 63.394531 54.125 63.433594 52.785156 63.421875 C 51.511719 63.40625 51.101562 63.355469 50.265625 63.0625 C 48.714844 62.527344 47.558594 61.953125 46.128906 61.019531 C 45.410156 60.554688 44.746094 60.167969 44.65625 60.167969 C 44.5625 60.167969 44.175781 59.941406 43.804688 59.644531 C 43.433594 59.367188 42.546875 58.84375 41.816406 58.5 C 40.691406 57.9375 40.398438 57.859375 39.65625 57.84375 C 38.871094 57.832031 38.660156 57.898438 37.46875 58.5 C 36.75 58.859375 35.914062 59.339844 35.625 59.566406 C 35.316406 59.78125 34.90625 60.058594 34.683594 60.167969 C 34.308594 60.351562 34.136719 60.488281 33.527344 60.992188 C 33.367188 61.125 33.195312 61.234375 33.144531 61.234375 C 33.089844 61.234375 32.664062 61.460938 32.203125 61.726562 C 28.488281 63.941406 25.1875 64.207031 23.367188 62.433594 C 22.53125 61.621094 22.070312 60.820312 21.960938 60.03125 C 21.921875 59.699219 21.855469 58.324219 21.816406 56.964844 C 21.65625 50.988281 21.472656 46.984375 21.328125 46.453125 C 21.179688 45.863281 20.636719 45.316406 19.722656 44.824219 C 18.210938 43.996094 17.09375 43.371094 16.765625 43.128906 C 16.550781 42.984375 15.902344 42.597656 15.316406 42.277344 C 14.734375 41.96875 13.925781 41.476562 13.515625 41.195312 C 13.101562 40.914062 12.707031 40.6875 12.625 40.6875 C 12.425781 40.6875 10.769531 39.648438 9.878906 38.980469 C 9.285156 38.515625 9.03125 38.207031 8.6875 37.472656 C 8.316406 36.699219 8.261719 36.445312 8.300781 35.820312 C 8.410156 34.273438 9.46875 32.671875 10.796875 32.015625 C 11.128906 31.859375 11.617188 31.578125 11.898438 31.378906 C 12.175781 31.191406 12.757812 30.855469 13.195312 30.644531 C 13.632812 30.429688 14.085938 30.175781 14.191406 30.082031 C 14.296875 29.988281 15.105469 29.535156 15.980469 29.082031 C 16.855469 28.628906 17.71875 28.148438 17.90625 28.015625 C 18.089844 27.882812 18.5 27.65625 18.832031 27.480469 C 19.988281 26.90625 21.5 25.960938 21.605469 25.761719 C 21.710938 25.5625 21.84375 23.160156 22.160156 15.875 C 22.28125 12.953125 22.441406 11.632812 22.785156 10.804688 C 23.144531 9.9375 24.070312 9.179688 25.464844 8.617188 C 25.769531 8.496094 27.679688 8.644531 28.023438 8.816406 Z M 28.023438 8.816406 "/>
<path style=" stroke:none;fill-rule:nonzero;fill:#0FBA81;fill-opacity:1;" d="M 37.773438 23.773438 C 37.558594 23.839844 37.402344 23.945312 37.402344 24.011719 C 37.402344 24.078125 37.28125 24.160156 37.148438 24.214844 C 36.472656 24.425781 35.675781 25.652344 35.503906 26.761719 C 35.238281 28.390625 36.898438 30.390625 38.714844 30.628906 C 40.664062 30.882812 42.359375 29.347656 42.53125 27.160156 C 42.625 26.132812 42.425781 25.640625 41.523438 24.652344 C 41.0625 24.148438 40.664062 23.839844 40.34375 23.746094 C 39.734375 23.585938 38.25 23.585938 37.773438 23.773438 Z M 37.773438 23.773438 "/>
<path style=" stroke:none;fill-rule:nonzero;fill:#0FBA81;fill-opacity:1;" d="M 39.152344 34.550781 C 38.382812 34.710938 37.972656 35.003906 37.175781 35.925781 C 36.722656 36.433594 36.484375 36.859375 36.417969 37.195312 C 36.113281 39.089844 36.777344 40.476562 38.394531 41.316406 C 39.230469 41.742188 39.390625 41.78125 40.121094 41.730469 C 41.351562 41.621094 42.757812 40.808594 43.15625 39.96875 C 43.992188 38.207031 43.765625 36.671875 42.519531 35.511719 C 42.203125 35.21875 41.765625 34.886719 41.539062 34.765625 C 41.019531 34.5 39.878906 34.40625 39.152344 34.550781 Z M 39.152344 34.550781 "/>
</g>
</svg>
